<?xml version="1.0" encoding="utf-8"?>
<!-- Generator: Adobe Illustrator 12.0.1, SVG Export Plug-In . SVG Version: 6.00 Build 51448)  -->
<!DOCTYPE svg PUBLIC "-//W3C//DTD SVG 1.1//EN" "http://www.w3.org/Graphics/SVG/1.1/DTD/svg11.dtd" [
<!ENTITY ns_svg "http://www.w3.org/2000/svg">
<!ENTITY ns_xlink "http://www.w3.org/1999/xlink">
]>
<svg xmlns="http://www.w3.org/2000/svg" xmlns:xlink="http://www.w3.org/1999/xlink" xmlns:svg="http://www.w3.org/2000/svg" xmlns:dc="http://purl.org/dc/elements/1.1/" xmlns:cc="http://web.resource.org/cc/" xmlns:rdf="http://www.w3.org/1999/02/22-rdf-syntax-ns#" version="1.1" id="Layer_1" width="612.903" height="120.186" viewBox="0 0 612.903 120.186" overflow="visible" enable-background="new 0 0 612.903 120.186" xml:space="preserve">
<g>
	<path fill-rule="evenodd" clip-rule="evenodd" fill="#FFFFFF" d="M567.731,5.107c-2.191,6.458-14.612,5.548-19,2   c-0.86,3.567,2.62,4.646,4,8c3.805,9.249,1.86,22.395,0,34c-6.216-9.208-14.098-20.979-10-35c0.686-2.345,3.912-7.145,4-7   c-1.052-1.735-5.241,2.377-9,3c-2.335,0.387-4.26-0.957-7-1c-6.755-0.107-15.019,1.789-21,1c-1.999-0.264-4.034-1.902-6-2   c-20.971-1.039-44.622,2.888-66,2c-3.948,1.281-2.42-2.914-5-3c2.326,9.161-7.188,27.927-1,41c-5.041,0.026-6.692-11.104-7-19   c-0.331-8.518,0.687-18.339,5-24c-4.07-0.737-3.38,3.287-5,5c-5.382-0.951-15.455,2.789-15-4c-3.406-0.74-1.648,3.685-4,4   c-19.107-2.241-39.614-0.021-59,0c-6.784,0.007-14.177-2-21-2c-8.298,0-19.22,4.836-24-3   C389.188,2.329,478.198,4.845,567.731,5.107z"/>
	<path fill-rule="evenodd" clip-rule="evenodd" fill="#FFFFFF" d="M48.731,6.107c3.595-0.144-2.275,5.471,3,7   c1.357-0.31,0.83-2.504,1-4c4.796,8.204,9.003,16.997,8,31c-1.547-1.453-2.1-3.9-2-7c-0.973,0.027-0.776,1.224-1,2   c-3.556-2.225-2.416-6.138-4-10C51.191,18.913,45.244,15.149,48.731,6.107z"/>
	<path fill-rule="evenodd" clip-rule="evenodd" fill="#FFFFFF" d="M407.731,9.107c10.595,9.072,15.359,23.974,18,41   c-11.016-3.985-12.455-17.545-18-27c-4.299,0.723-11.434-3.354-16-3c-16.359,1.267-20.936,20.735-29,32   c-2.713-0.767,1.387-7.908,3-11c7.249-13.891,20.837-28.717,41-19C405.657,16.859,405.573,13.174,407.731,9.107z"/>
	<path fill-rule="evenodd" clip-rule="evenodd" fill="#FFFFFF" d="M576.731,9.107c10.377,5.634-5.823,39.037-18,40   C557.721,28.764,567.635,19.345,576.731,9.107z"/>
	<path fill-rule="evenodd" clip-rule="evenodd" fill="#FFFFFF" d="M45.731,44.107c-8.094-6.24-12.539-16.128-15-28   c1.927,0.407,0.79,3.877,4,3c-0.239-4.095-3.397-5.27-4-9C40.985,16.187,39.198,34.308,45.731,44.107z"/>
	<path fill-rule="evenodd" clip-rule="evenodd" fill="#FFFFFF" d="M564.731,11.107c1.228,3.832-2.172,5.507,0,11   c-4.614,3.719-5.91,10.756-8,17c-0.609,2.391,1.255,7.255-1,8c0-2.667,0-5.333,0-8C556.267,27.311,559.468,18.178,564.731,11.107z"/>
	<path fill-rule="evenodd" clip-rule="evenodd" fill="#FFFFFF" d="M300.731,13.107c7.91,3.757,7.93,15.404,8,27   c-1.753,1.893-3.474-1.745-3,3c-1.357-0.31-0.83-2.504-1-4c-3.027,2.45,0.758,6.508,0,10   C296.541,42.559,298.502,24.822,300.731,13.107z"/>
	<path fill-rule="evenodd" clip-rule="evenodd" fill="#FFFFFF" d="M114.731,15.107c2.141-2.718,5.966,1.301,6,4   c2.63,0.296,0.787-3.88,4-3c-1.904,3.763-0.096,11.237-2,15c6.404-1.938,10.801-14.526,24-13c0.454,3.624-2.834,1.573-4,2   c-8.512,3.118-15.035,8.44-20,16c-5.317,8.095-11.651,18.008-16,29c-2.666-10.219,16.584-25.343,15-36   c-0.429-2.886-2.234-7.538-8-7c0.241-1.759,1.721-2.279,4-2C117.397,17.775,116.706,15.799,114.731,15.107z"/>
	<path fill-rule="evenodd" clip-rule="evenodd" fill="#FFFFFF" d="M320.731,14.107c2.995,0.658-0.956,2.138,0,4   C317.384,17.204,319.858,15.871,320.731,14.107z"/>
	<path fill-rule="evenodd" clip-rule="evenodd" fill="#FFFFFF" d="M275.731,15.107c11.398,7.935,20.87,17.796,23,35   c-1.487-3.513-3.636-6.364-6-9c-2.356,0.272-0.611,4.428,1,4c-5.598-0.729-12.64-10.116-16-18   C276.424,24.042,275.374,20.928,275.731,15.107z M280.731,26.107c0.211-1.208,1.11-0.615,2,0c0.474-3.141-1.247-4.086-3-5   C279.205,23.662,278.405,24.607,280.731,26.107z"/>
	<path fill-rule="evenodd" clip-rule="evenodd" fill="#FFFFFF" d="M434.731,15.107c0.667,0,1.333,0,2,0   c8.566,5.977,1.871,29.711-4,34C430.505,38.315,431.71,23.829,434.731,15.107z"/>
	<path fill-rule="evenodd" clip-rule="evenodd" fill="#FFFFFF" d="M467.731,21.107c-13.816,5.517-22.154,16.512-29,29   c0.171-8.147,8.696-23.987,17-29C457.922,19.785,465.769,14.897,467.731,21.107z"/>
	<path fill-rule="evenodd" clip-rule="evenodd" fill="#FFFFFF" d="M93.731,19.107c2.526-0.321,1.224,5.352,1,6   c-1.498,4.343-9.097,9.364-14,14c-5.089,4.811-10.292,11.214-16,11C70.428,35.805,79.006,24.383,93.731,19.107z"/>
	<path fill-rule="evenodd" clip-rule="evenodd" fill="#FFFFFF" d="M584.731,20.107c4.572-1.78,0.65,5.066,0,7   c-2.334,6.938-7.548,11.908-12,16C572.445,34.709,586.118,27.18,584.731,20.107z"/>
	<path fill-rule="evenodd" clip-rule="evenodd" d="M279.731,21.107c1.753,0.914,3.474,1.859,3,5c-0.89-0.615-1.789-1.208-2,0   C278.405,24.607,279.205,23.662,279.731,21.107z"/>
	<path fill-rule="evenodd" clip-rule="evenodd" fill="#FFFFFF" d="M47.731,51.107c-17.269,3.264-28.463-8.2-37-17   C26.901,31.99,38.622,42.844,47.731,51.107z"/>
	<path fill-rule="evenodd" clip-rule="evenodd" fill="#FFFFFF" d="M413.731,52.107c-14.447,7.528-22.245-10.622-33-16   C395.357,27.244,400.611,49.881,413.731,52.107z"/>
	<path fill-rule="evenodd" clip-rule="evenodd" fill="#FFFFFF" d="M606.731,37.107c-4.376,15.624-23.136,16.864-40,20   C571.731,48.674,593.733,31.927,606.731,37.107z"/>
	<path fill-rule="evenodd" clip-rule="evenodd" fill="#FFFFFF" d="M107.731,38.107c-4.839,9.015-22.008,5.732-31,8   C84.025,41.044,99.922,33.22,107.731,38.107z"/>
	<path fill-rule="evenodd" clip-rule="evenodd" fill="#FFFFFF" d="M608.731,39.107c3.434,24.104-2.774,52.555,1,77   c-12.67,2.33-29.664,0.336-44,1c0.426-1.907,2.857-1.81,2-5c11.188-1.894,21.291,0.177,34-1c1.597-5.763-3.241-24.744,3-29   c-17.638,0.638-29.545-4.455-38-13c13.464-3.625,31.463-0.375,38,11c0.668-3.808-7.083-12.286,3-14c0.291-4.291-4.712-3.288-5-7   C602.12,49.829,607.939,46.982,608.731,39.107z"/>
	<path fill-rule="evenodd" clip-rule="evenodd" fill="#FFFFFF" d="M255.731,45.107c0.693-0.807,1.556-2.739,0-3   c14.412-4.798,30.058,5.737,38,14C280.951,58.052,266.901,50.674,255.731,45.107z"/>
	<path fill-rule="evenodd" clip-rule="evenodd" fill="#FFFFFF" d="M306.731,43.107c0.381-1.904,1.272,0.639,1,2   C307.35,47.011,306.458,44.469,306.731,43.107z"/>
	<path fill-rule="evenodd" clip-rule="evenodd" fill="#FFFFFF" d="M104.731,46.107c-4.106,10.375-22.072,11.726-35,10   C76.902,48.796,91.08,43.659,104.731,46.107z"/>
	<path fill-rule="evenodd" clip-rule="evenodd" fill="#FFFFFF" d="M472.731,47.107c-2.806-0.773-10.632,2.011-16,2   c6.256-3.411,14.972-4.361,25-4c-4.178,4.048-4.257,6.262-12,6c1.183,6.212,12.109,1.486,14-1c1.301,4.406-0.055,4.097-2,7   c-10.358-0.981-22.814-1.738-33,0c2.948-5.08,15.194-6.746,26-7C474.9,48.756,469.646,48.109,472.731,47.107z"/>
	<path fill-rule="evenodd" clip-rule="evenodd" fill="#FFFFFF" d="M31.731,51.107c-8.732,3.384-15.588-3.734-25-3   c0.64,3.36,4.795,3.205,9,3c-1.71,4.407-17.232,0.641-11-4C11.119,42.351,26.816,51.053,31.731,51.107z"/>
	<path fill-rule="evenodd" clip-rule="evenodd" fill="#FFFFFF" d="M157.731,58.107c-1.347,3.681-6.666,2.101-9,2   c-10.078-0.437-22.425-4.641-28-9c-0.557-4.224,5.453-1.88,7-4C135.371,53.134,143.818,58.354,157.731,58.107z"/>
	<path fill-rule="evenodd" clip-rule="evenodd" fill="#FFFFFF" d="M455.731,49.107c-0.241,1.759-1.721,2.279-4,2   C452.389,49.765,453.869,49.245,455.731,49.107z"/>
	<path fill-rule="evenodd" clip-rule="evenodd" fill="#FFFFFF" d="M348.731,52.107c0.31-1.357,2.504-0.83,4-1   C352.421,52.465,350.227,51.937,348.731,52.107z"/>
	<path fill-rule="evenodd" clip-rule="evenodd" fill="#FFFFFF" d="M360.731,54.107c-7.737,9.965-25.538,11.327-40,7   c0.161-1.172,1.823-0.843,3-1c0.795-0.111,3.031-3.306,1-3c6.276-4.374,13.922-4.381,22-5   C341.79,55.763,357.614,52.428,360.731,54.107z"/>
	<path fill-rule="evenodd" clip-rule="evenodd" fill="#FFFFFF" d="M496.731,59.107c0.776-0.89,1.075-2.258,1-4   c4.222-4.685,16.094-2.969,22-2c8.055,1.322,17.125,4.56,22,8c-4.332,5.017-21.059,5.421-32,3   C504.455,62.94,500.325,59.83,496.731,59.107z M538.731,62.107c1.542-3.019-5.175-2.631-5-1   C534.892,61.947,536.412,62.427,538.731,62.107z"/>
	<path fill-rule="evenodd" clip-rule="evenodd" fill="#FFFFFF" d="M54.731,54.107c1.151-3.235,1.132,2.686,1,4   C54.58,61.343,54.599,55.422,54.731,54.107z"/>
	<path fill-rule="evenodd" clip-rule="evenodd" fill="#FFFFFF" d="M416.731,60.107c-4.041,2.812-12.828,5.141-21,5   c-8.198-0.141-18.587-1.88-20-8c9.532-2.607,23.131-5.165,32,0c1.891,1.101,1.724-0.123,1,2   C412.439,58.399,413.023,60.816,416.731,60.107z"/>
	<path fill-rule="evenodd" clip-rule="evenodd" fill="#FFFFFF" d="M194.731,61.107c7.121-8.186,32.207-5.877,41-1   c0.534,1.44-3.897,2.44-1,3c-5.43,4.959-12.29-3.11-20-4C207.553,58.279,202.123,60.292,194.731,61.107z"/>
	<path fill-rule="evenodd" clip-rule="evenodd" fill="#FFFFFF" d="M477.731,60.107c-3.931,7.731-19.974,6.428-30,5   c3.442-0.928,3.5-3.801,0-5C455.068,57.124,470.988,54.926,477.731,60.107z"/>
	<path fill-rule="evenodd" clip-rule="evenodd" fill="#FFFFFF" d="M357.731,58.107c3.554,2.19-0.351,7.82-2,11   c-1.845,3.557-5.659,6.58-6,10C346.299,73.604,358.293,67.298,357.731,58.107z"/>
	<path fill-rule="evenodd" clip-rule="evenodd" fill="#FFFFFF" d="M107.731,73.107c-15.976,4.353-25.754-10.622-38-10   c1.243-4.142,6.971-2.93,10-3C91.089,59.843,105.581,63.119,107.731,73.107z"/>
	<path fill-rule="evenodd" clip-rule="evenodd" fill="#FFFFFF" d="M227.731,66.107c-1.402,2.913-3.445-1.772-6-1   c1.826,4.365,1.271,4.895,7,5c-2.024,3.548-8.163,3.895-12,4c-9.415,0.259-19.108-4.112-23-9c1.931-4.348,9.899-5.056,15-5   C216.273,60.19,223.828,63.152,227.731,66.107z"/>
	<path fill-rule="evenodd" clip-rule="evenodd" d="M533.731,61.107c-0.175-1.631,6.542-2.019,5,1   C536.412,62.427,534.892,61.947,533.731,61.107z"/>
	<path fill-rule="evenodd" clip-rule="evenodd" fill="#FFFFFF" d="M605.731,64.107c-9.369,9.689-24.458-0.631-38,1   c3.363-5.217,14.363-5.635,23-5C596.333,60.52,602.493,62.401,605.731,64.107z"/>
	<path fill-rule="evenodd" clip-rule="evenodd" fill="#FFFFFF" d="M162.731,62.107c0.309,1.721,3.473-1.299,3,3   c-11.725,3.557-26.824,15.373-39,9c8.207-8.46,22.067-11.266,37-13C163.915,61.958,163.341,62.051,162.731,62.107z"/>
	<path fill-rule="evenodd" clip-rule="evenodd" fill="#FFFFFF" d="M38.731,65.107c-7.295,5.555-21.456,8.96-32,8   C3.943,60.428,31.12,64.569,38.731,65.107z"/>
	<path fill-rule="evenodd" clip-rule="evenodd" fill="#FFFFFF" d="M253.731,84.107c8.707-12.263,20.229-18.764,38-20   c-4.836,3.174-10.662,4.959-14,7C269.034,76.425,266.574,87.357,253.731,84.107z"/>
	<path fill-rule="evenodd" clip-rule="evenodd" fill="#FFFFFF" d="M436.731,66.107c0.381-1.903,1.272,0.639,1,2   C437.35,70.011,436.458,67.469,436.731,66.107z"/>
	<path fill-rule="evenodd" clip-rule="evenodd" fill="#FFFFFF" d="M169.731,68.107c-5.995,9.672-15.101,16.232-25,22   c-2.333-0.334-4.309-1.025-5-3c-1.44,0.227-0.349,2.984-2,3c-2.09,0.424-2.648-0.686-4-1c0.994-4.672,2.756-8.578,8-9   c-0.309,2.358-3.473,1.86-3,5C147.087,77.484,158.358,66.648,169.731,68.107z"/>
	<path fill-rule="evenodd" clip-rule="evenodd" fill="#FFFFFF" d="M191.731,68.107c1,0,2,0,3,0c7.935,9.398,30.247,4.42,31,21   C213.573,89.267,191.801,77.218,191.731,68.107z"/>
	<path fill-rule="evenodd" clip-rule="evenodd" fill="#FFFFFF" d="M41.731,72.107c2.025,11.861-10.338,22.619-23,26   C17.858,84.571,36.132,82.415,41.731,72.107z"/>
	<path fill-rule="evenodd" clip-rule="evenodd" fill="#FFFFFF" d="M186.731,73.107c8.84,1.769,19.779,15.511,20,31   c-2.059-0.274-0.941-3.726-3-4c-2.995,0.658,0.956,2.138,0,4C194.204,97.635,191.224,84.614,186.731,73.107z"/>
	<path fill-rule="evenodd" clip-rule="evenodd" fill="#FFFFFF" d="M298.731,72.107c-4.032,4.486-4.319,11.527-8,19   c-1.096,2.225-3.759,3.678-5,6c-3.61,6.756-2.412,13.606-13,13c0.376-16.072,13.958-27.29,23-38   C296.731,72.107,297.731,72.107,298.731,72.107z"/>
	<path fill-rule="evenodd" clip-rule="evenodd" fill="#FFFFFF" d="M54.731,73.107c0.667,0,1.333,0,2,0c8.174,7.371,6.398,27.04,2,37   c6.437-3.563,4.765-15.234,5-25c4.082,7.868,4.578,24.634-2,30c-3.407-0.96-4.121-5.207-7-4   C50.144,100.913,51.382,83.643,54.731,73.107z"/>
	<path fill-rule="evenodd" clip-rule="evenodd" fill="#FFFFFF" d="M409.731,107.107c7.766-8.567,2.903-29.763,15-34   c-7.043,11.681,1.563,34.015-17,35c-1.969-3.481,5.22-5.076,4-11C414.808,100.251,410.029,104.022,409.731,107.107z"/>
	<path fill-rule="evenodd" clip-rule="evenodd" fill="#FFFFFF" d="M226.731,74.107c-0.977,2.356-0.323,6.344-4,6   C222.908,76.951,223.434,74.144,226.731,74.107z"/>
	<path fill-rule="evenodd" clip-rule="evenodd" fill="#FFFFFF" d="M425.731,74.107c10.501,3.655,13.758,32.383,2,33   C429.64,96.514,417.608,84.854,425.731,74.107z"/>
	<path fill-rule="evenodd" clip-rule="evenodd" fill="#FFFFFF" d="M175.731,75.107c3.342,13.682-2.847,26.481-8,35   c-1.85-0.15-0.614-3.387-2-4c-2.203,0.798-3.993,2.008-4,5c-4.941-2.075,1.191-8.257-1-10c2.522-3.803,5.616-5.532,8-10   c2.056-3.853,1.914-9.736,4-13C173.642,76.682,178.444,78.31,175.731,75.107z"/>
	<path fill-rule="evenodd" clip-rule="evenodd" fill="#FFFFFF" d="M317.731,76.107c6.793-2.178,11.747,5.634,18,9   c4.974,2.677,12.214,1.747,12,8C332.684,92.488,326.375,83.13,317.731,76.107z"/>
	<path fill-rule="evenodd" clip-rule="evenodd" fill="#FFFFFF" d="M555.731,77.107c0.161-1.172,1.823-0.844,3-1   c5.816,8.973,12.552,25.001,7,39c-2.992-2.735,1.335-6.607,0-11c-1.486,0.847-1.447,3.22-2,5c-0.465-2.979-5.188-4.887-4,1   C553.183,102.661,556.051,86.323,555.731,77.107z"/>
	<path fill-rule="evenodd" clip-rule="evenodd" fill="#FFFFFF" d="M45.731,77.107c2.442,5.146-1.888,18.94-4,26   c-1.781-0.733-0.144-1.818,0-3c-4.627,0.706-2.538,8.129-8,8C30.807,94.435,40.5,85.845,45.731,77.107z"/>
	<path fill-rule="evenodd" clip-rule="evenodd" fill="#FFFFFF" d="M551.731,79.107c5.318,2.809-0.225,16.869,3,24   c-1.44-0.227-0.349-2.984-2-3c-3.355,4.954-1.2,11.274-1,16c-8.116-4.544-4.659-23.081-3-32c1.167,3.104,2.889-0.534,3,3   C554.817,84.399,548.599,82.579,551.731,79.107z"/>
	<path fill-rule="evenodd" clip-rule="evenodd" fill="#FFFFFF" d="M316.731,80.107c10.925,5.408,22.119,10.548,21,28   C327.753,101.752,320.925,92.246,316.731,80.107z"/>
	<path fill-rule="evenodd" clip-rule="evenodd" fill="#FFFFFF" d="M304.731,84.107c3.27,4.46,3.059,11.069,5,17   c1.717,5.244,6.941,10.699,1,15C303.65,111.254,300.359,93.983,304.731,84.107z"/>
	<path fill-rule="evenodd" clip-rule="evenodd" fill="#FFFFFF" d="M93.731,85.107c1,0,2,0,3,0c-2.037,5.146-5.062,14.021-10,13   C88.018,92.728,92.996,91.039,93.731,85.107z"/>
	<path fill-rule="evenodd" clip-rule="evenodd" fill="#FFFFFF" d="M209.731,101.107c-1.23-0.437-2.054-1.279-2-3   c4.771-1.562,4.718-7.948,11-8C216.583,94.626,212.454,97.164,209.731,101.107z"/>
	<path fill-rule="evenodd" clip-rule="evenodd" fill="#FFFFFF" d="M425.731,100.107c-1.233-2.767-2.646-5.354-3-9   C424.74,93.099,426.153,95.686,425.731,100.107z"/>
	<path fill-rule="evenodd" clip-rule="evenodd" fill="#FFFFFF" d="M337.731,94.107c1,0,2,0,3,0c-0.354,1.313-1.761,1.573-2,3   C337.559,96.946,337.887,95.284,337.731,94.107z"/>
	<path fill-rule="evenodd" clip-rule="evenodd" d="M84.731,98.107c0,0.667,0,1.333,0,2c-0.667,0-1.333,0-2,0c0-0.667,0-1.333,0-2   C83.397,98.107,84.064,98.107,84.731,98.107z"/>
	<path fill-rule="evenodd" clip-rule="evenodd" fill="#FFFFFF" d="M522.731,99.107c3.065,0.981-1.149,2.668-1,4   C518.666,102.126,522.88,100.439,522.731,99.107z"/>
	<path fill-rule="evenodd" clip-rule="evenodd" fill="#FFFFFF" d="M459.731,101.107c-1.956,2.711-3.879,5.454-8,6   C453.702,104.411,456.281,102.324,459.731,101.107z"/>
	<path fill-rule="evenodd" clip-rule="evenodd" fill="#FFFFFF" d="M330.731,104.107c-1.418,2.916-3.378,5.289-8,5   C324.643,106.686,327.163,104.872,330.731,104.107z"/>
	<path fill-rule="evenodd" clip-rule="evenodd" fill="#FFFFFF" d="M429.731,111.107c0.605,2.062-1.613,6.947,2,6   c-36.427,1.24-78.561-0.721-120,0c2.2-4.065,4.354-6.001,8-2c2.82-0.18,1.247-4.753,5-4   C368.367,110.671,390.217,110.85,429.731,111.107z"/>
	<path fill-rule="evenodd" clip-rule="evenodd" fill="#FFFFFF" d="M547.731,115.107c-0.718,3.731-6.213,1.93-8,2   c-35.83,1.402-68.092-1.808-105,0c1.785-1.882,2.704-4.629,5-6c31.129-1.357,65.155,1.63,90,1   C535.427,111.963,545.127,107.484,547.731,115.107z"/>
	<path fill-rule="evenodd" clip-rule="evenodd" fill="#FFFFFF" d="M553.731,112.107c1.486,0.847,1.447,3.22,2,5   C552.371,118.134,554.174,113.997,553.731,112.107z"/>
	<path fill-rule="evenodd" clip-rule="evenodd" fill="#FFFFFF" d="M558.731,113.107c1.889,0.111,0.694,3.306,3,3   c-0.31,1.357-2.504,0.83-4,1C558.507,116.218,558.806,114.85,558.731,113.107z"/>
	<path fill-rule="evenodd" clip-rule="evenodd" fill="#FFFFFF" d="M8.731,6.107c-0.214,6.652-1.38,19.751-1,31   c0.095,2.813,3.533,7.483-1,8c-5.057,0.163-3-10.955-3-19c0-8.272,0-17.493,0-24c50.471,2.563,104.311-1.272,156,1   c37.018,1.627,79.834-0.87,121,1c5.065,0.23,12.607-1.819,16,2c-4.673,6.058-14.084,2.401-21,2c-24.923-1.445-54.69,1.289-77,0   c-1.236,11.309-12.076,20.198-14,34c-3.146-14.152,1.881-28.781,10-35c-2.931,1.967-20.842,2.794-25-2   c-0.056,9.844,1.155,30.474,3,41c-6.965-7.416-10.771-27.374-6-40c-3.958-1.292-2.042,3.292-6,2c-36.062-1.173-69.602-0.945-107-1   c-0.793-2.207-4.701-1.299-5-4c-0.851-0.184-0.943,0.39-1,1c-0.973,0.027-0.776,1.224-1,2C32.843,5.536,20.366,7.144,8.731,6.107z"/>
	<path fill-rule="evenodd" clip-rule="evenodd" d="M1.731,0.107c26.66-0.517,53.299,1,80,1c52.73,0,105.7,0,159,0   c113.806,0,254.579,1.914,372,0c0.762,40.429-1.265,78.068-1,118c-102.499-0.01-206.847,1-310,1c-103.118,0-204.65,0.494-301-1   c-1.078-37.655,0.332-77.747,0-116C-0.388,1.667-0.347,0.667,1.731,0.107z M46.731,6.107c0.224-0.776,0.027-1.973,1-2   c0.057-0.61,0.149-1.184,1-1c0.299,2.701,4.207,1.793,5,4c37.398,0.055,70.938-0.173,107,1c3.958,1.292,2.042-3.292,6-2   c-4.771,12.626-0.965,32.584,6,40c-1.845-10.526-3.056-31.156-3-41c4.158,4.794,22.069,3.967,25,2   c-8.119,6.219-13.146,20.848-10,35c1.924-13.802,12.764-22.691,14-34c22.31,1.289,52.077-1.445,77,0c6.916,0.401,16.327,4.058,21-2   c-3.393-3.819-10.935-1.77-16-2c-41.166-1.87-83.982,0.627-121-1c-51.689-2.272-105.529,1.563-156-1c0,6.507,0,15.728,0,24   c0,8.045-2.057,19.163,3,19c4.533-0.517,1.095-5.187,1-8c-0.38-11.249,0.786-24.348,1-31C20.366,7.144,32.843,5.536,46.731,6.107z    M184.731,48.107c1.987,1.666,1.271-0.09,4,0c6.792-9.208,13.856-18.144,14-34c-10.907,3.764-13.807,20.854-15,31   c2.302-2.698,2.038-7.962,6-9C191.846,41.736,186.324,49.224,184.731,48.107z M301.731,5.107c4.78,7.836,15.702,3,24,3   c6.823,0,14.216,2.007,21,2c19.386-0.021,39.893-2.241,59,0c2.352-0.315,0.594-4.74,4-4c-0.455,6.789,9.618,3.049,15,4   c1.62-1.713,0.93-5.737,5-5c-4.313,5.661-5.331,15.482-5,24c0.308,7.896,1.959,19.026,7,19c-6.188-13.073,3.326-31.839,1-41   c2.58,0.086,1.052,4.281,5,3c21.378,0.888,45.029-3.039,66-2c1.966,0.098,4.001,1.736,6,2c5.981,0.789,14.245-1.107,21-1   c2.74,0.043,4.665,1.387,7,1c3.759-0.623,7.948-4.735,9-3c-0.088-0.145-3.314,4.655-4,7c-4.098,14.021,3.784,25.792,10,35   c1.86-11.605,3.805-24.751,0-34c-1.38-3.354-4.86-4.433-4-8c4.388,3.548,16.809,4.458,19-2   C478.198,4.845,389.188,2.329,301.731,5.107z M603.731,34.107c0.905-1.482,5.338,1.929,6,4c0-11.333,0-22.667,0-34   c-7.12,1.096-15.956,0.843-24,1c-4.766,0.093-12.498-1.8-12,2c0.188,4.79,1.739-1.717,5,0c4.225,3.548,17.219,2.172,23,1   C604.725,17.142,603.204,26.585,603.731,34.107z M40.731,12.107c-3.281,16.286,4.117,30.546,14,37c2.986-13.864-3.389-26.457-9-35   c-0.605,2.062,1.614,6.947-2,6C41.122,16.023,44.871,16.273,40.731,12.107z M30.731,10.107c0.603,3.73,3.761,4.905,4,9   c-3.21,0.877-2.073-2.593-4-3c2.461,11.872,6.906,21.76,15,28C39.198,34.308,40.985,16.187,30.731,10.107z M53.731,25.107   c1.584,3.862,0.444,7.775,4,10c0.224-0.776,0.027-1.973,1-2c-0.1,3.1,0.453,5.547,2,7c1.003-14.003-3.204-22.796-8-31   c-0.17,1.496,0.357,3.69-1,4c-5.275-1.529,0.595-7.144-3-7C45.244,15.149,51.191,18.913,53.731,25.107z M303.731,12.107   c-0.334-2.333-1.025-4.309-3-5c-0.141,4.779-3.359,2.422-4,0c-1.427,8.979-3.057,19.618,1,27   C297.409,26.521,298.84,5.079,303.731,12.107z M171.731,29.107c0.882,7.688,4.105,16.628,7,17c-3.15-3.216,0.099-8.519,2-10   c-0.322-10.678,1.281-23.281-5-28C170.101,10.578,170.892,21.799,171.731,29.107z M406.731,22.107   c-20.163-9.717-33.751,5.109-41,19c-1.613,3.092-5.713,10.233-3,11c8.064-11.265,12.641-30.733,29-32   c4.566-0.354,11.701,3.723,16,3c5.545,9.455,6.984,23.015,18,27c-2.641-17.026-7.405-31.928-18-41   C405.573,13.174,405.657,16.859,406.731,22.107z M558.731,49.107c12.177-0.963,28.377-34.366,18-40   C567.635,19.345,557.721,28.764,558.731,49.107z M320.731,19.107c-1.377,0.043-2.196-0.471-3-1c-3.55,8.457-9.875,19.45-8,30   c4.252-12.081,10.055-22.612,18-31c-0.575-1.758,1.209-5.875-1-6c-0.772,2.561-0.998,5.669-3,7c-1.396-2.874,2.726-5.08,0-6   c-0.239,1.875-1.646-0.567-2,1C324.146,14.012,322.158,18.752,320.731,19.107z M555.731,39.107c0,2.667,0,5.333,0,8   c2.255-0.745,0.391-5.609,1-8c2.09-6.244,3.386-13.281,8-17c-2.172-5.493,1.228-7.168,0-11   C559.468,18.178,556.267,27.311,555.731,39.107z M533.731,14.107c2.04,2.327,6.111,7.844,5,10c-1.441-2.154-4.157-6.343-7-4   c-0.958-3.042-1.179-6.821-4-8c1.581,16.421,8.293,33.036,19,37c-3.141-0.158-2.05-3.705-3-5c-0.587-0.8-6.107-2.097-4-6   c2.036,0.297,2.664,2.003,4,3C541.447,31.718,540.712,15.468,533.731,14.107z M236.731,20.107c0.751,1.303,6.821,4.52,7,6   c-0.627-3.04,1.28-8.613-1-10c-2.513,6.329-5.487-5.428-8-2C239.158,13.762,235.989,18.82,236.731,20.107z M304.731,49.107   c0.758-3.492-3.027-7.55,0-10c0.17,1.496-0.357,3.69,1,4c-0.474-4.745,1.247-1.107,3-3c-0.07-11.596-0.09-23.243-8-27   C298.502,24.822,296.541,42.559,304.731,49.107z M333.731,17.107c0.152,0.027,1.541-3.162-1-2c-1.316,0.602-1.343,1.429-2,3   c-0.221-0.779-0.838-1.163-2-1c-6.984,9.019-15.524,21.804-16,34c10.467-9.536,25.276-20.053,27-35c-2.233,2.1-2.438,6.229-6,7   c0.003-1.003-0.81-1.19-1-2c1.229-2.481,7.125-5.483,5-8C334.879,13.714,335.149,17.363,333.731,17.107z M361.731,21.107   c7.44-1.44,5.655,6.345,8,10c1.126-3.415,2.312-12.075-1-14c-0.113,1.22-0.299,2.368-2,2c1.811-4.383-6.901-6.969-5-5   C364.997,15.26,365.821,20.537,361.731,21.107z M117.731,20.107c-2.279-0.279-3.759,0.241-4,2c5.766-0.538,7.571,4.114,8,7   c1.584,10.657-17.666,25.781-15,36c4.349-10.992,10.683-20.905,16-29c4.965-7.56,11.488-12.882,20-16c1.166-0.427,4.454,1.624,4-2   c-13.199-1.526-17.596,11.062-24,13c1.904-3.763,0.096-11.237,2-15c-3.213-0.88-1.37,3.296-4,3c-0.034-2.699-3.859-6.718-6-4   C116.706,15.799,117.397,17.775,117.731,20.107z M320.731,18.107c-0.956-1.862,2.995-3.342,0-4   C319.858,15.871,317.384,17.204,320.731,18.107z M277.731,29.107c-3.94-6.61-8.002-8.2-16-10c-2.181,4.75-8.487,4.935-12,8   c-2.498,2.179-2.495,6.206-6,7c-1.084-2.561,3.038-4.767,0-6c-1.435,7.898-5.089,13.578-6,22c-1.263,2.01-5.912,6.908-2,8   c6.554-14.698,9.562-29.745,26-36c7.279,10.387,15.465,19.868,27,26C286.597,42.608,281.41,35.278,277.731,29.107z M277.731,27.107   c3.36,7.884,10.402,17.271,16,18c-1.611,0.428-3.356-3.728-1-4c2.364,2.636,4.513,5.487,6,9c-2.13-17.204-11.602-27.065-23-35   C275.374,20.928,276.424,24.042,277.731,27.107z M432.731,49.107c5.871-4.289,12.566-28.023,4-34c-0.667,0-1.333,0-2,0   C431.71,23.829,430.505,38.315,432.731,49.107z M494.731,19.107c-2.566,2.82-6.091-7.164-10-3c8.197,1.044,7.503,17.852,8,19   C494.125,31.144,495.612,22.021,494.731,19.107z M163.731,30.107c-5.285-1.944-1.17-0.13-3-5c-1.33-3.54-8.786-9.002-13-9   c1.673,8.644,8.593,17.485,13,23c4.012,5.02,6.127,9.829,12,9c-3.918-3.082-6.745-7.255-7-14c-1.263-0.52-6.073-2.438-3-4   C162.416,31.512,163.931,30.181,163.731,30.107z M63.731,44.107c6.421-9.578,16.013-15.987,21-27   C73.408,21.122,65.234,33.605,63.731,44.107z M455.731,21.107c-8.304,5.013-16.829,20.853-17,29c6.846-12.488,15.184-23.483,29-29   C465.769,14.897,457.922,19.785,455.731,21.107z M543.731,51.107c-7.555-7.779-14.404-16.262-16-30c-3.484-1.659-8.64-5.18-11,0   c3.307,2.214,3.868,7.148,6,11c4.349,7.857,9.987,16.873,17,18c-1.086-0.239-2.401-1.646-1-2   C540.674,48.248,545.677,53.444,543.731,51.107z M64.731,50.107c5.708,0.214,10.911-6.189,16-11c4.903-4.636,12.502-9.657,14-14   c0.224-0.648,1.526-6.321-1-6C79.006,24.383,70.428,35.805,64.731,50.107z M572.731,43.107c4.452-4.092,9.666-9.062,12-16   c0.65-1.934,4.572-8.78,0-7C586.118,27.18,572.445,34.709,572.731,43.107z M504.731,27.107c1.128-1.257,13.859-2.082,13-2   c-18.338-6.153-26.259,14.033-32,27C493.955,45.664,495.498,32.541,504.731,27.107z M223.731,26.107   c-13.557-0.834-27.655,11.635-31,21c1.551-2.196,4.847-7.309,7-3c3.949-5.051,10.961-7.039,17-10c1.13-2.204,1.15-5.517,4-6   c-1.123,2.544-2.456,4.877-4,7c4.961-0.039,6.121-3.879,8-7C220.5,29.25,222.364,28.697,223.731,26.107z M414.731,50.107   c-0.889-0.294-4.378-2.706-2-3c2.322,1.887,4.226,4.102,7,1c-7.036-8.631-14.22-17.114-25-22c-0.271,2.062-4.428,0.238-4,3   C396.937,37.24,405.715,48.117,414.731,50.107z M443.731,53.107c10.988-6.346,21.104-13.563,27-25c-4.723-0.866-5.491,5.779-9,3   c-0.509-1.985,5.518-2.288,2-4c-7.958,6.713-21.758,12.903-22,24c1.497-0.598,4.174-5.032,5-3   C448.007,49.724,441.946,51.699,443.731,53.107z M572.731,45.107c5.996-0.035,10.418-5.541,16-8c4.889-2.154,15.312-1.114,14-10   C588.095,28.472,581.257,37.634,572.731,45.107z M320.731,48.107c0.294-2.039,2.706-1.961,3-4c5.222-1.045,10.398-10.353,10-12   c0.076,0.315-0.061,0.682,0,1C329.929,37.984,321.864,43.892,320.731,48.107z M10.731,34.107c8.537,8.8,19.731,20.264,37,17   C38.622,42.844,26.901,31.99,10.731,34.107z M380.731,36.107c10.755,5.378,18.553,23.528,33,16   C400.611,49.881,395.357,27.244,380.731,36.107z M166.731,50.107c-6.011-6.724-13.462-17.112-26-14   c1.281,11.378,19.659,16.065,23,17c0.296-2.63-3.88-0.787-3-4c4.808-0.421-1.191-0.362,0-3   C163.188,46.384,164.714,52.701,166.731,50.107z M566.731,57.107c16.864-3.136,35.624-4.376,40-20   C593.733,31.927,571.731,48.674,566.731,57.107z M76.731,46.107c8.992-2.268,26.161,1.015,31-8   C99.922,33.22,84.025,41.044,76.731,46.107z M198.731,52.107c-2.266,1.449-8.051,1.512-6,2c14.194,2.625,28.812-7.533,31-17   c-12.844-2.873-24.612,7.593-28,14c-0.428-1.611,3.728-3.356,4-1C197.86,50.054,197.614,50.877,198.731,52.107z M354.731,37.107   c-0.002,4.539-8.134,6.253-10,3c2.693-0.068,4.807-2.286,3-4c-3.424,0.016,0.138,2.6-4,3c-0.047-0.348,0.864-2.009,1-2   c-6.766-0.45-24.005,11.139-24,13c1.184-0.293,3.777-4.028,5-1c-2.475-0.776-2.347,6.119-2,7   C333.531,49.903,354.277,49.325,354.731,37.107z M602.731,59.107c0.288,3.712,5.291,2.709,5,7c-10.083,1.714-2.332,10.192-3,14   c-6.537-11.375-24.536-14.625-38-11c8.455,8.545,20.362,13.638,38,13c-6.241,4.256-1.403,23.237-3,29   c-12.709,1.177-22.812-0.894-34,1c0.857,3.19-1.574,3.093-2,5c14.336-0.664,31.33,1.33,44-1c-3.774-24.445,2.434-52.896-1-77   C607.939,46.982,602.12,49.829,602.731,59.107z M251.731,60.107c6.18,5.452,19.592,4.506,28,5c0.08-5.075,13.271-1.464,6-5   c2.874-1.397,5.08,2.726,6,0C282.395,57.447,258.864,49.151,251.731,60.107z M293.731,56.107c-7.942-8.263-23.588-18.798-38-14   c1.556,0.261,0.693,2.193,0,3C266.901,50.674,280.951,58.052,293.731,56.107z M307.731,45.107c0.272-1.361-0.619-3.904-1-2   C306.458,44.469,307.35,47.011,307.731,45.107z M538.731,52.107c-8.266-5.89-22.402-10.72-35-9c-0.484,4.484,3.535,4.465,4,8   c7.975-2.099,19.507,2.972,25,3C530.046,49.219,537.954,53.497,538.731,52.107z M163.731,58.107c1.7,0.224,2.474-1.127,0-1   c1.374-2.264-3.415-3.314-5-4c-2.703-1.17-5.385-1.422-8-3c-4.312-2.602-8.31-8.861-15-7c-0.576,2.091-2.479,2.854-2,6   C139.589,56.249,153.729,55.109,163.731,58.107z M69.731,56.107c12.928,1.726,30.894,0.375,35-10   C91.08,43.659,76.902,48.796,69.731,56.107z M474.731,50.107c-10.806,0.254-23.052,1.92-26,7c10.186-1.738,22.642-0.981,33,0   c1.945-2.903,3.301-2.594,2-7c-1.891,2.486-12.817,7.212-14,1c7.743,0.262,7.822-1.952,12-6c-10.028-0.361-18.744,0.589-25,4   c5.368,0.011,13.194-2.773,16-2C469.646,48.109,474.9,48.756,474.731,50.107z M4.731,47.107c-6.232,4.641,9.29,8.407,11,4   c-4.205,0.205-8.36,0.36-9-3c9.412-0.734,16.268,6.384,25,3C26.816,51.053,11.119,42.351,4.731,47.107z M127.731,47.107   c-1.547,2.12-7.557-0.224-7,4c5.575,4.359,17.922,8.563,28,9c2.334,0.101,7.653,1.681,9-2   C143.818,58.354,135.371,53.134,127.731,47.107z M451.731,51.107c2.279,0.279,3.759-0.241,4-2   C453.869,49.245,452.389,49.765,451.731,51.107z M591.731,55.107c-4.634-1.144-12.312,1.1-16,4c10.746-1.587,22.756-1.911,27-10   C598.906,51.539,589.872,53.604,591.731,55.107z M352.731,51.107c-1.496,0.17-3.69-0.357-4,1   C350.227,51.937,352.421,52.465,352.731,51.107z M346.731,52.107c-8.078,0.619-15.724,0.626-22,5c2.031-0.306-0.205,2.889-1,3   c-1.177,0.157-2.839-0.172-3,1c14.462,4.327,32.263,2.965,40-7C357.614,52.428,341.79,55.763,346.731,52.107z M535.731,69.107   c-1.003-0.003-1.19,0.81-2,1c-1.165-0.168-1.086-1.581-1-3c-12.596,0.851-26.363-2.196-33-4   C499.555,78.979,531.082,74.92,535.731,69.107z M509.731,64.107c10.941,2.421,27.668,2.017,32-3c-4.875-3.44-13.945-6.678-22-8   c-5.906-0.969-17.778-2.685-22,2c0.075,1.742-0.224,3.11-1,4C500.325,59.83,504.455,62.94,509.731,64.107z M2.731,118.107   c96.445-0.274,211.163-0.563,304-1c1.381-8.334-14.2-7.123-18-4c-1.769-2.618-4.409-1.829-7-2c-23.961-1.581-45.691,0.927-75,0   c-1.287,1.714-3.287,2.714-6,3c-3.305-2.028-6.927-3.74-13-3c-2.107,4.766-5.509,4.312-9,6c-1.713-1.286-2.713-3.286-3-6   c-3.125,1.542-9.198,0.136-11,3c-2.914-1.197-4.606-2.498-8-3c-26.827-3.967-62.468,2.666-90,1c-3.042,0.958-2.025,5.975-7,5   c-2.138-1.195-1.242-5.425-6-4c-2.171-3.064-1.597,4.991-5,4c5.285-5.776,1.414-13.677,1-21c-0.36-6.382,2.779-13.163-1-15   c-2.395,8.656-6.195,28.121,0,34c-5.074,1.74-2.326-4.34-6-4c-14.865-0.795-24.081,2.339-35,0c-2.145-17.71,2.681-28.119-4-41   c3.959-2.096,4.057-8.566,4-12c7.699,6.115,26.662,4.532,36,1c-6.387-6.621-29.09-9.053-37-2c0.873-3.206-1.539-3.127-3-4   C2.889,74.265,2.427,95.804,2.731,118.107z M55.731,58.107c0.132-1.314,0.151-7.235-1-4C54.599,55.422,54.58,61.343,55.731,58.107z    M408.731,59.107c0.724-2.123,0.891-0.899-1-2c-8.869-5.165-22.468-2.607-32,0c1.413,6.12,11.802,7.859,20,8   c8.172,0.141,16.959-2.188,21-5C413.023,60.816,412.439,58.399,408.731,59.107z M444.731,56.107c-0.306-2.306,2.889-1.111,3-3   C445.782,52.635,442.617,55.799,444.731,56.107z M208.731,60.107c-5.101-0.056-13.069,0.652-15,5c3.892,4.888,13.585,9.259,23,9   c3.837-0.105,9.976-0.452,12-4c-5.729-0.105-5.174-0.635-7-5c2.555-0.772,4.598,3.913,6,1   C223.828,63.152,216.273,60.19,208.731,60.107z M214.731,59.107c7.71,0.89,14.57,8.959,20,4c-2.897-0.56,1.534-1.56,1-3   c-8.793-4.877-33.879-7.186-41,1C202.123,60.292,207.553,58.279,214.731,59.107z M476.731,74.107c3.031-4.981,7.576-13.74,8-18   C480.758,60.148,476.775,69.468,476.731,74.107z M447.731,60.107c3.5,1.199,3.442,4.072,0,5c10.026,1.428,26.069,2.731,30-5   C470.988,54.926,455.068,57.124,447.731,60.107z M349.731,79.107c0.341-3.42,4.155-6.443,6-10c1.649-3.18,5.554-8.81,2-11   C358.293,67.298,346.299,73.604,349.731,79.107z M79.731,60.107c-3.029,0.07-8.757-1.142-10,3c12.246-0.622,22.024,14.353,38,10   C105.581,63.119,91.089,59.843,79.731,60.107z M590.731,60.107c-8.637-0.635-19.637-0.217-23,5c13.542-1.631,28.631,8.689,38-1   C602.493,62.401,596.333,60.52,590.731,60.107z M163.731,61.107c-14.933,1.734-28.793,4.54-37,13c12.176,6.373,27.275-5.443,39-9   c0.473-4.299-2.691-1.279-3-3C163.341,62.051,163.915,61.958,163.731,61.107z M410.731,69.107c4.538-2.257-0.652-0.901-1-1   c-3.266-0.931-2.283-1.753-5-2c-2.895-0.264-6.129,1.174-10,1c-6.869-0.309-13.841-4.479-20-4c0,1.333,0,2.667,0,4   C385.034,70.716,401.755,73.57,410.731,69.107z M6.731,73.107c10.544,0.96,24.705-2.445,32-8   C31.12,64.569,3.943,60.428,6.731,73.107z M286.731,78.107c0.043-1.377-0.471-2.195-1-3c4.785-4.354,3.85-3.545,8-9   c-16.159,4.841-28.69,13.31-33,30c14.726-0.851,24.479-15.809,28-19C287.728,77.104,287.541,77.917,286.731,78.107z    M277.731,71.107c3.338-2.041,9.164-3.826,14-7c-17.771,1.236-29.293,7.737-38,20C266.574,87.357,269.034,76.425,277.731,71.107z    M38.731,70.107c-10.997-0.457-27.343,7.086-26,19c13.562-3.812,27.765-15.288,32-24C43.537,67.58,41.307,69.018,38.731,70.107z    M78.731,66.107C72.937,63.223,76.099,68.575,78.731,66.107L78.731,66.107z M326.731,68.107c-5.609-2.056-1.898,0.449-3,2   c-2.555,0.772-4.598-3.913-6-1c9.754,7.58,17.362,17.305,34,18c-4.383-7.617-13.107-10.893-17-19c-3.44,0.035-11.443-4.665-11-2   C325.452,66.054,326.294,66.877,326.731,68.107z M437.731,68.107c0.272-1.361-0.619-3.903-1-2   C436.458,67.469,437.35,70.011,437.731,68.107z M138.731,85.107c-0.473-3.14,2.691-2.642,3-5c-5.244,0.422-7.006,4.328-8,9   c1.352,0.314,1.91,1.424,4,1c1.651-0.016,0.56-2.773,2-3c0.691,1.975,2.667,2.666,5,3c9.899-5.768,19.005-12.328,25-22   C158.358,66.648,147.087,77.484,138.731,85.107z M67.731,69.107c7.601,8.119,25.033,18.937,41,12   c-11.156-0.518-16.401-12.257-27-10c3.534,0.111-0.104,1.833,3,3c-4.02,0.471-6.434-3.665-8,0c-1.373-2.279,2.578-3.759,0-4   C73.918,74.137,71.4,64.222,67.731,69.107z M225.731,89.107c-0.753-16.58-23.065-11.602-31-21c-1,0-2,0-3,0   C191.801,77.218,213.573,89.267,225.731,89.107z M387.731,89.107c2.338,0.329,4.132,1.202,6,2c9.521-6.812,20.222-12.445,26-23   c-3.116,1.875-11.718,7.448-12,3C399.229,75.272,390.375,79.084,387.731,89.107z M453.731,75.107c-3.062-2.271-8.929-1.738-11-5   c2.275,12.062,15.143,18.852,24,21c-2.033-1.09-6.354-2.527-4-5c4.26,0.74,5.949,4.051,9,6c-2.078-13.593-15.782-20.88-26-23   C448.207,70.67,455.118,73.003,453.731,75.107z M455.731,71.107c10.099,3.567,12.346,14.987,24,17c-0.688-2.688,2.067-1.933,3-3   c-4.23-8.778-16.451-13.743-25-15C462.779,69.343,455.676,68.635,455.731,71.107z M395.731,91.107c-1.585,2.082-7.939-0.606-7,4   c2.58,6.561,11.276,0.688,16-3c7.108-5.552,12.429-14.003,16-21c0.556,0.003,1.135-0.81,0-1   C414.446,79.155,405.819,85.861,395.731,91.107z M18.731,98.107c12.662-3.381,25.025-14.139,23-26   C36.132,82.415,17.858,84.571,18.731,98.107z M172.731,78.107c-2.086,3.264-1.944,9.147-4,13c-2.384,4.468-5.478,6.197-8,10   c2.191,1.743-3.941,7.925,1,10c0.007-2.992,1.797-4.202,4-5c1.386,0.613,0.15,3.85,2,4c5.153-8.519,11.342-21.318,8-35   C178.444,78.31,173.642,76.682,172.731,78.107z M165.731,92.107c3.224-5.554,7.157-12.983,5-20c-7.769,7.851-23.332,20.785-19,33   C158.522,104.742,162.794,97.166,165.731,92.107z M198.731,102.107c-4.664-5.669-7.174-13.493-11-20c-1.294,3.646,2.552,11.199-1,8   c1.013,8.653,5.317,14.017,9,20c3.257-0.26,5.246-3.707,7,0c1.428-1.413-0.218-4.857-1-7c-2.561-1.084-4.767,3.038-6,0   C195.571,97.517,198.735,105.119,198.731,102.107z M203.731,104.107c0.956-1.862-2.995-3.342,0-4c2.059,0.274,0.941,3.726,3,4   c-0.221-15.489-11.16-29.231-20-31C191.224,84.614,194.204,97.635,203.731,104.107z M295.731,72.107   c-9.042,10.71-22.624,21.928-23,38c10.588,0.606,9.39-6.244,13-13c1.241-2.322,3.904-3.775,5-6c3.681-7.473,3.968-14.514,8-19   C297.731,72.107,296.731,72.107,295.731,72.107z M515.731,92.107c0.318-2.762,3.095-1.731,4,0c-0.73,3.826-6.941,3.278-8,4   c13.048,3.293,17.484-10.45,24-17c3.226-0.484,7.775-4.833,6-7c-2.378,1.989-6.678,7.277-10,5c-0.83-2.925,5.961-3.245,3-5   C528.507,78.223,516.562,83.931,515.731,92.107z M54.731,111.107c2.879-1.207,3.593,3.04,7,4c6.578-5.366,6.082-22.132,2-30   c-0.235,9.766,1.437,21.437-5,25c4.398-9.96,6.174-29.629-2-37c-0.667,0-1.333,0-2,0C51.382,83.643,50.144,100.913,54.731,111.107z    M411.731,97.107c1.22,5.924-5.969,7.519-4,11c18.563-0.985,9.957-23.319,17-35c-12.097,4.237-7.234,25.433-15,34   C410.029,104.022,414.808,100.251,411.731,97.107z M432.731,78.107c-1.611-0.483-1.969-7.237-4-4   C429.477,75.444,434.578,80.544,432.731,78.107z M446.731,107.107c-0.182-2.182,0.818-3.182,3-3c0.224,0.776,0.027,1.973,1,2   c-0.481-3.464,0.647-7.003,0-10c-1.361-6.303-10.958-21.722-16-23c1.923,2.494-1.526,4.109,1,6c0.138-4.153,0.658-0.202,2,0   c0.224-0.776,0.027-1.973,1-2c0.869,4.745-2.442,2.768-3,4c1.876,3.178,2.124,0.761,4-1   C437.12,87.509,440.685,102.112,446.731,107.107z M222.731,80.107c3.677,0.344,3.023-3.644,4-6   C223.434,74.144,222.908,76.951,222.731,80.107z M422.731,91.107c0.354,3.646,1.767,6.233,3,9   C426.153,95.686,424.74,93.099,422.731,91.107z M427.731,107.107c11.758-0.617,8.501-29.345-2-33   C417.608,84.854,429.64,96.514,427.731,107.107z M566.731,80.107c-2.59-1.366-3.142-3.23-2,1c-2.306,0.306-1.111-2.889-3-3   c5.039,9.961,7.402,22.598,16,29c0.313-4.157-1.878-7.293,0-11c1.297,4.242,3.52,8.504,4,9c0.571,0.59-0.235-4.403,0-11   c-5.713-5.96-9.334-19.324-18-19C564.898,76.607,566.62,77.553,566.731,80.107z M594.731,104.107   c-4.743-12.927-15.714-24.949-26-29C581.343,80.828,579.048,101.456,594.731,104.107z M67.731,75.107c0.583,5.21-4.113-2.739-5,1   c4.504,11.829,8.909,23.758,21,28C87.242,92.718,76.791,80.343,67.731,75.107z M315.731,77.107   C320.123,83.255,312.175,72.13,315.731,77.107L315.731,77.107z M347.731,93.107c0.214-6.253-7.026-5.323-12-8   c-6.253-3.366-11.207-11.178-18-9C326.375,83.13,332.684,92.488,347.731,93.107z M458.731,89.107c-8.281-2.052-12.054-8.612-17-14   c6.019,8.648,6.996,22.337,20,24C463.896,95.02,458.783,93.823,458.731,89.107z M526.731,102.107c-1.44,0.56-2.44,1.56-3,3   c12.685-2.986,23.425-13.236,22-27c-1.004,1.329-0.945,3.721-3,4c-1.32-2.503,3.953-3.131,1-4c-0.869,1.464-1.497,3.17-4,3   c0.311-2.423,6.154-4.423,4-6C536.81,82.342,524.519,89.018,526.731,102.107z M293.731,89.107c-2.904,6.388-11.068,10.615-7,20   c2.171-0.829,2.225-3.774,5-4c1.373,2.279-2.578,3.759,0,4c6.011-7.328,12.574-19.419,9-33c-0.924,1.742,0.034,5.367-3,5   c-1.373-2.279,2.578-3.759,0-4C293.681,79.98,295.832,84.486,293.731,89.107z M306.731,76.107c2.394,14.272,2.138,31.195,14,36   C323.481,96.544,316.629,76.236,306.731,76.107z M559.731,110.107c-1.188-5.887,3.535-3.979,4-1c0.553-1.78,0.514-4.153,2-5   c1.335,4.393-2.992,8.265,0,11c5.552-13.999-1.184-30.027-7-39c-1.177,0.156-2.839-0.172-3,1   C556.051,86.323,553.183,102.661,559.731,110.107z M33.731,108.107c5.462,0.129,3.373-7.294,8-8c-0.144,1.182-1.781,2.267,0,3   c2.112-7.06,6.442-20.854,4-26C40.5,85.845,30.807,94.435,33.731,108.107z M178.731,112.107c-0.133,0.443-1.409-8.675,2-8   c-0.051,4.385-0.699,9.366,3,10c3.186-8.297,3.121-25.891-1-33c-0.575,1.758,1.208,5.875-1,6c-0.084-3.249-0.516-6.151-2-8   C178.708,89.85,170.593,106.905,178.731,112.107z M551.731,87.107c-0.111-3.534-1.833,0.104-3-3c-1.659,8.919-5.116,27.456,3,32   c-0.2-4.726-2.355-11.046,1-16c1.651,0.016,0.56,2.773,2,3c-3.225-7.131,2.318-21.191-3-24   C548.599,82.579,554.817,84.399,551.731,87.107z M337.731,108.107c1.119-17.452-10.075-22.592-21-28   C320.925,92.246,327.753,101.752,337.731,108.107z M310.731,116.107c5.941-4.301,0.717-9.756-1-15c-1.941-5.931-1.73-12.54-5-17   C300.359,93.983,303.65,111.254,310.731,116.107z M86.731,98.107c4.938,1.021,7.963-7.854,10-13c-1,0-2,0-3,0   C92.996,91.039,88.018,92.728,86.731,98.107z M430.731,115.107c11.946,0.197,8.832-23.455,5-30c0,0.667,0,1.333,0,2   C441.666,102.342,428.392,105.444,430.731,115.107z M491.731,101.107c1.453-0.547,5.169,1.169,5-1c-4.241-1.426-8.946-2.387-13-4   c4.559-4.451,18.303-5.018,21-8c-4.653-1.025-8.987,2.174-10-1c-4.112,2.674-24.723,14.772-28,13c0.775,0.419,1.437-2.083,0-2   c-2.787,6.212-9.908,8.092-15,12c12.2-2.247,28.027-18.43,37-6C493.252,102.496,496.003,105.434,491.731,101.107z M205.731,108.107   c6.062-8.292,19.04-9.14,27-4c0.456-4.005-6.785-3.314-2-6c-4.802-1.528-8.573,4.247-10,0c3.928-6.497,16.072-2.527,20-2   c-0.795-0.111-3.031-3.306-1-3c3.049-1.267,5.091,3.419,6,1c-2.331-4.082-8.149-2.62-10-5c0.555,0.003,1.135-0.81,0-1   C227.151,95.531,207.546,97.251,205.731,108.107z M218.731,90.107c-6.282,0.052-6.229,6.438-11,8c-0.054,1.721,0.77,2.563,2,3   C212.454,97.164,216.583,94.626,218.731,90.107z M340.731,106.107c6.369-3.309,8.464-6.494,14-6c4.391,0.393,5.345,4.728,9,6   c-1.863-0.648,6.753-2.874,5,0c0.473-3.14-2.691-2.642-3-5c1.329-2.449,3.721,1.1,4-1c-2.25-2.417-10.265,0.932-10-4   c5.621-1.018,10.772-5.031,16-1c-0.797-7.243,6.814,1.322,8-2c-3.145-2.189-9.945-0.721-11-5c-6.72,4.613-15.665,7.002-23,11   c-0.534-1.44,3.896-2.44,1-3C348.786,100.183,338.345,101.027,340.731,106.107z M116.731,93.107c-0.306-2.306,2.889-1.111,3-3   c-2.488-0.154-3.096,1.571-5,2c-12.787,0.428-16.091,4.543-25,8c-2.042,1.959-2.095,5.905-6,6c-1.862-0.138-3.342-0.658-4-2   c-3.414,2.92-10.152,2.515-13,6c12.757-0.243,21.367-4.633,30-9c4.11,1.805,9.412,1.718,12,2c-2.055-0.591-4.165-1.924-2-4   c-1.758-0.575-5.875,1.209-6-1c3.277-5.426,12.519-4.304,15,1c2.452-1.332-1.802-3.019,1-4c2.039,0.294,1.961,2.706,4,3   C121.153,94.686,117.736,95.103,116.731,93.107z M338.731,97.107c0.239-1.427,1.646-1.687,2-3c-1,0-2,0-3,0   C337.887,95.284,337.559,96.946,338.731,97.107z M521.731,103.107c-0.149-1.332,4.065-3.019,1-4   C522.88,100.439,518.666,102.126,521.731,103.107z M451.731,107.107c4.121-0.546,6.044-3.289,8-6   C456.281,102.324,453.702,104.411,451.731,107.107z M322.731,109.107c4.622,0.289,6.582-2.084,8-5   C327.163,104.872,324.643,106.686,322.731,109.107z M328.731,110.107c0.638-2.029,4.675-0.658,5-3   C332.614,105.018,326.746,109.35,328.731,110.107z M585.731,110.107c-1.964-0.448-4.998-4.896-6-3   C581.613,107.638,584.36,112.372,585.731,110.107z M557.731,113.107c-0.105-2.562-0.566-4.768-2-6   C555.977,108.956,556.745,115.299,557.731,113.107z M324.731,111.107c-3.753-0.753-2.18,3.82-5,4c-3.646-4.001-5.8-2.065-8,2   c41.439-0.721,83.573,1.24,120,0c-3.613,0.947-1.395-3.938-2-6C390.217,110.85,368.367,110.671,324.731,111.107z M529.731,112.107   c-24.845,0.63-58.871-2.357-90-1c-2.296,1.371-3.215,4.118-5,6c36.908-1.808,69.17,1.402,105,0c1.787-0.07,7.282,1.731,8-2   C545.127,107.484,535.427,111.963,529.731,112.107z M555.731,117.107c-0.553-1.78-0.514-4.153-2-5   C554.174,113.997,552.371,118.134,555.731,117.107z M557.731,117.107c1.496-0.17,3.69,0.357,4-1c-2.306,0.306-1.111-2.889-3-3   C558.806,114.85,558.507,116.218,557.731,117.107z"/>
	<path fill-rule="evenodd" clip-rule="evenodd" fill="#FFFFFF" d="M193.731,36.107c-3.962,1.038-3.698,6.302-6,9   c1.193-10.146,4.093-27.236,15-31c-0.144,15.856-7.208,24.792-14,34c-2.729-0.09-2.013,1.666-4,0   C186.324,49.224,191.846,41.736,193.731,36.107z"/>
	<path fill-rule="evenodd" clip-rule="evenodd" fill="#FFFFFF" d="M601.731,8.107c-5.781,1.172-18.775,2.548-23-1   c-3.261-1.717-4.812,4.79-5,0c-0.498-3.8,7.234-1.907,12-2c8.044-0.157,16.88,0.096,24-1c0,11.333,0,22.667,0,34   c-0.662-2.071-5.095-5.482-6-4C603.204,26.585,604.725,17.142,601.731,8.107z"/>
	<path fill-rule="evenodd" clip-rule="evenodd" fill="#FFFFFF" d="M43.731,20.107c3.614,0.947,1.395-3.938,2-6   c5.611,8.543,11.986,21.136,9,35c-9.883-6.454-17.281-20.714-14-37C44.871,16.273,41.122,16.023,43.731,20.107z"/>
	<path fill-rule="evenodd" clip-rule="evenodd" fill="#FFFFFF" d="M297.731,34.107c-4.057-7.382-2.427-18.021-1-27   c0.641,2.422,3.859,4.779,4,0c1.975,0.691,2.666,2.667,3,5C298.84,5.079,297.409,26.521,297.731,34.107z"/>
	<path fill-rule="evenodd" clip-rule="evenodd" fill="#FFFFFF" d="M175.731,8.107c6.281,4.719,4.678,17.322,5,28   c-1.901,1.481-5.15,6.784-2,10c-2.895-0.372-6.118-9.312-7-17C170.892,21.799,170.101,10.578,175.731,8.107z"/>
	<path fill-rule="evenodd" clip-rule="evenodd" fill="#FFFFFF" d="M321.731,13.107c0.354-1.567,1.761,0.875,2-1   c2.726,0.92-1.396,3.126,0,6c2.002-1.331,2.228-4.439,3-7c2.209,0.125,0.425,4.242,1,6c-7.945,8.388-13.748,18.919-18,31   c-1.875-10.55,4.45-21.543,8-30c0.804,0.529,1.623,1.043,3,1C322.158,18.752,324.146,14.012,321.731,13.107z"/>
	<path fill-rule="evenodd" clip-rule="evenodd" fill="#FFFFFF" d="M543.731,41.107c-1.336-0.997-1.964-2.703-4-3   c-2.107,3.903,3.413,5.2,4,6c0.95,1.295-0.141,4.842,3,5c-10.707-3.964-17.419-20.579-19-37c2.821,1.179,3.042,4.958,4,8   c2.843-2.343,5.559,1.846,7,4c1.111-2.156-2.96-7.673-5-10C540.712,15.468,541.447,31.718,543.731,41.107z"/>
	<path fill-rule="evenodd" clip-rule="evenodd" fill="#FFFFFF" d="M234.731,14.107c2.513-3.428,5.487,8.329,8,2   c2.28,1.387,0.373,6.96,1,10c-0.179-1.48-6.249-4.697-7-6C235.989,18.82,239.158,13.762,234.731,14.107z"/>
	<path fill-rule="evenodd" clip-rule="evenodd" fill="#FFFFFF" d="M337.731,13.107c2.125,2.517-3.771,5.519-5,8   c0.19,0.81,1.003,0.997,1,2c3.562-0.771,3.767-4.9,6-7c-1.724,14.947-16.533,25.464-27,35c0.476-12.196,9.016-24.981,16-34   c1.162-0.163,1.779,0.221,2,1c0.657-1.571,0.684-2.398,2-3c2.541-1.162,1.152,2.027,1,2   C335.149,17.363,334.879,13.714,337.731,13.107z M332.731,19.107C327.71,25.069,334.613,16.873,332.731,19.107L332.731,19.107z"/>
	<path fill-rule="evenodd" clip-rule="evenodd" fill="#FFFFFF" d="M361.731,14.107c-1.901-1.969,6.811,0.617,5,5   c1.701,0.368,1.887-0.78,2-2c3.312,1.925,2.126,10.585,1,14c-2.345-3.655-0.56-11.44-8-10   C365.821,20.537,364.997,15.26,361.731,14.107z"/>
	<path fill-rule="evenodd" clip-rule="evenodd" d="M332.731,19.107C334.613,16.873,327.71,25.069,332.731,19.107L332.731,19.107z"/>
	<path fill-rule="evenodd" clip-rule="evenodd" fill="#FFFFFF" d="M288.731,48.107c-11.535-6.132-19.721-15.613-27-26   c-16.438,6.255-19.446,21.302-26,36c-3.912-1.092,0.737-5.99,2-8c0.911-8.422,4.565-14.102,6-22c3.038,1.233-1.084,3.439,0,6   c3.505-0.794,3.502-4.821,6-7c3.513-3.065,9.819-3.25,12-8c7.998,1.8,12.06,3.39,16,10   C281.41,35.278,286.597,42.608,288.731,48.107z"/>
	<path fill-rule="evenodd" clip-rule="evenodd" fill="#FFFFFF" d="M492.731,35.107c-0.497-1.148,0.197-17.956-8-19   c3.909-4.164,7.434,5.82,10,3C495.612,22.021,494.125,31.144,492.731,35.107z"/>
	<path fill-rule="evenodd" clip-rule="evenodd" fill="#FFFFFF" d="M162.731,30.107c-3.073,1.562,1.737,3.48,3,4   c0.255,6.745,3.082,10.918,7,14c-5.873,0.829-7.988-3.98-12-9c-4.407-5.515-11.327-14.356-13-23c4.214-0.002,11.67,5.46,13,9   c1.83,4.87-2.285,3.056,3,5C163.931,30.181,162.416,31.512,162.731,30.107z"/>
	<path fill-rule="evenodd" clip-rule="evenodd" fill="#FFFFFF" d="M84.731,17.107c-4.987,11.013-14.579,17.422-21,27   C65.234,33.605,73.408,21.122,84.731,17.107z"/>
	<path fill-rule="evenodd" clip-rule="evenodd" fill="#FFFFFF" d="M538.731,48.107c-1.401,0.354-0.086,1.761,1,2   c-7.013-1.127-12.651-10.143-17-18c-2.132-3.852-2.693-8.786-6-11c2.36-5.18,7.516-1.659,11,0c1.596,13.738,8.445,22.221,16,30   C545.677,53.444,540.674,48.248,538.731,48.107z"/>
	<path fill-rule="evenodd" clip-rule="evenodd" fill="#FFFFFF" d="M485.731,52.107c5.741-12.967,13.662-33.153,32-27   c0.859-0.082-11.872,0.743-13,2C495.498,32.541,493.955,45.664,485.731,52.107z"/>
	<path fill-rule="evenodd" clip-rule="evenodd" fill="#FFFFFF" d="M224.731,28.107c-1.879,3.121-3.039,6.961-8,7   c1.544-2.123,2.877-4.456,4-7c-2.85,0.483-2.87,3.796-4,6c-6.039,2.961-13.051,4.949-17,10c-2.153-4.309-5.449,0.804-7,3   c3.345-9.365,17.443-21.834,31-21C222.364,28.697,220.5,29.25,224.731,28.107z"/>
	<path fill-rule="evenodd" clip-rule="evenodd" fill="#FFFFFF" d="M390.731,29.107c-0.428-2.762,3.729-0.938,4-3   c10.78,4.886,17.964,13.369,25,22c-2.774,3.102-4.678,0.887-7-1c-2.378,0.294,1.111,2.706,2,3   C405.715,48.117,396.937,37.24,390.731,29.107z"/>
	<path fill-rule="evenodd" clip-rule="evenodd" fill="#FFFFFF" d="M446.731,48.107c-0.826-2.032-3.503,2.402-5,3   c0.242-11.097,14.042-17.287,22-24c3.518,1.712-2.509,2.015-2,4c3.509,2.779,4.277-3.866,9-3c-5.896,11.437-16.012,18.654-27,25   C441.946,51.699,448.007,49.724,446.731,48.107z"/>
	<path fill-rule="evenodd" clip-rule="evenodd" fill="#FFFFFF" d="M602.731,27.107c1.312,8.886-9.111,7.846-14,10   c-5.582,2.459-10.004,7.965-16,8C581.257,37.634,588.095,28.472,602.731,27.107z M578.731,43.107c1.601-4.066,7.155-4.178,9-8   C584.327,36.731,577.202,39.875,578.731,43.107z"/>
	<path fill-rule="evenodd" clip-rule="evenodd" d="M587.731,35.107c-1.845,3.822-7.399,3.934-9,8   C577.202,39.875,584.327,36.731,587.731,35.107z"/>
	<path fill-rule="evenodd" clip-rule="evenodd" fill="#FFFFFF" d="M333.731,33.107c-0.061-0.318,0.076-0.685,0-1   c0.398,1.647-4.778,10.955-10,12c-0.294,2.039-2.706,1.961-3,4C321.864,43.892,329.929,37.984,333.731,33.107z"/>
	<path fill-rule="evenodd" clip-rule="evenodd" fill="#FFFFFF" d="M160.731,46.107c-1.191,2.638,4.808,2.579,0,3   c-0.88,3.213,3.296,1.37,3,4c-3.341-0.935-21.719-5.622-23-17c12.538-3.112,19.989,7.276,26,14   C164.714,52.701,163.188,46.384,160.731,46.107z"/>
	<path fill-rule="evenodd" clip-rule="evenodd" fill="#FFFFFF" d="M199.731,50.107c-0.272-2.356-4.428-0.611-4,1   c3.388-6.407,15.156-16.873,28-14c-2.188,9.467-16.806,19.625-31,17c-2.051-0.488,3.734-0.551,6-2   C197.614,50.877,197.86,50.054,199.731,50.107z"/>
	<path fill-rule="evenodd" clip-rule="evenodd" fill="#FFFFFF" d="M323.731,56.107c-0.347-0.881-0.475-7.776,2-7   c-1.223-3.028-3.816,0.707-5,1c-0.005-1.861,17.234-13.45,24-13c-0.136-0.009-1.047,1.652-1,2c4.138-0.4,0.576-2.984,4-3   c1.807,1.714-0.307,3.932-3,4c1.866,3.253,9.998,1.539,10-3C354.277,49.325,333.531,49.903,323.731,56.107z"/>
	<path fill-rule="evenodd" clip-rule="evenodd" fill="#FFFFFF" d="M291.731,60.107c-0.92,2.726-3.126-1.397-6,0   c7.271,3.536-5.92-0.075-6,5c-8.408-0.494-21.82,0.452-28-5C258.864,49.151,282.395,57.447,291.731,60.107z"/>
	<path fill-rule="evenodd" clip-rule="evenodd" fill="#FFFFFF" d="M532.731,54.107c-5.493-0.028-17.025-5.099-25-3   c-0.465-3.535-4.484-3.516-4-8c12.598-1.72,26.734,3.11,35,9C537.954,53.497,530.046,49.219,532.731,54.107z"/>
	<path fill-rule="evenodd" clip-rule="evenodd" fill="#FFFFFF" d="M133.731,49.107c-0.479-3.146,1.424-3.909,2-6   c6.69-1.861,10.688,4.398,15,7c2.615,1.578,5.297,1.83,8,3c1.585,0.686,6.374,1.736,5,4c2.474-0.127,1.7,1.224,0,1   C153.729,55.109,139.589,56.249,133.731,49.107z"/>
	<path fill-rule="evenodd" clip-rule="evenodd" fill="#FFFFFF" d="M602.731,49.107c-4.244,8.089-16.254,8.413-27,10   c3.688-2.9,11.366-5.144,16-4C589.872,53.604,598.906,51.539,602.731,49.107z"/>
	<path fill-rule="evenodd" clip-rule="evenodd" fill="#FFFFFF" d="M499.731,63.107c6.637,1.804,20.404,4.851,33,4   c-0.086,1.419-0.165,2.832,1,3c0.81-0.19,0.997-1.003,2-1C531.082,74.92,499.555,78.979,499.731,63.107z"/>
	<path fill-rule="evenodd" clip-rule="evenodd" fill="#FFFFFF" d="M3.731,53.107c1.461,0.873,3.873,0.794,3,4   c7.91-7.053,30.613-4.621,37,2c-9.338,3.532-28.301,5.115-36-1c0.057,3.434-0.041,9.904-4,12c6.681,12.881,1.855,23.29,4,41   c10.919,2.339,20.135-0.795,35,0c3.674-0.34,0.926,5.74,6,4c-6.195-5.879-2.395-25.344,0-34c3.779,1.837,0.64,8.618,1,15   c0.414,7.323,4.285,15.224-1,21c3.403,0.991,2.829-7.064,5-4c4.758-1.425,3.862,2.805,6,4c4.975,0.975,3.958-4.042,7-5   c27.532,1.666,63.173-4.967,90-1c3.394,0.502,5.086,1.803,8,3c1.802-2.864,7.875-1.458,11-3c0.287,2.714,1.287,4.714,3,6   c3.491-1.688,6.893-1.234,9-6c6.073-0.74,9.695,0.972,13,3c2.713-0.286,4.713-1.286,6-3c29.309,0.927,51.039-1.581,75,0   c2.591,0.171,5.231-0.618,7,2c3.8-3.123,19.381-4.334,18,4c-92.837,0.437-207.555,0.726-304,1   C2.427,95.804,2.889,74.265,3.731,53.107z"/>
	<path fill-rule="evenodd" clip-rule="evenodd" fill="#FFFFFF" d="M447.731,53.107c-0.111,1.889-3.306,0.694-3,3   C442.617,55.799,445.782,52.635,447.731,53.107z"/>
	<path fill-rule="evenodd" clip-rule="evenodd" fill="#FFFFFF" d="M484.731,56.107c-0.424,4.26-4.969,13.019-8,18   C476.775,69.468,480.758,60.148,484.731,56.107z"/>
	<path fill-rule="evenodd" clip-rule="evenodd" fill="#FFFFFF" d="M374.731,67.107c0-1.333,0-2.667,0-4   c6.159-0.479,13.131,3.691,20,4c3.871,0.174,7.105-1.264,10-1c2.717,0.247,1.734,1.069,5,2c0.348,0.099,5.538-1.257,1,1   C401.755,73.57,385.034,70.716,374.731,67.107z"/>
	<path fill-rule="evenodd" clip-rule="evenodd" fill="#FFFFFF" d="M288.731,77.107c-3.521,3.191-13.274,18.149-28,19   c4.31-16.69,16.841-25.159,33-30c-4.15,5.455-3.215,4.646-8,9c0.529,0.805,1.043,1.623,1,3   C287.541,77.917,287.728,77.104,288.731,77.107z"/>
	<path fill-rule="evenodd" clip-rule="evenodd" fill="#FFFFFF" d="M44.731,65.107c-4.235,8.712-18.438,20.188-32,24   c-1.343-11.914,15.003-19.457,26-19C41.307,69.018,43.537,67.58,44.731,65.107z"/>
	<path fill-rule="evenodd" clip-rule="evenodd" fill="#FFFFFF" d="M78.731,66.107C76.099,68.575,72.937,63.223,78.731,66.107   L78.731,66.107z"/>
	<path fill-rule="evenodd" clip-rule="evenodd" fill="#FFFFFF" d="M323.731,66.107c-0.443-2.665,7.56,2.035,11,2   c3.893,8.107,12.617,11.383,17,19c-16.638-0.695-24.246-10.42-34-18c1.402-2.913,3.445,1.772,6,1c1.102-1.551-2.609-4.056,3-2   C326.294,66.877,325.452,66.054,323.731,66.107z"/>
	<path fill-rule="evenodd" clip-rule="evenodd" fill="#FFFFFF" d="M76.731,70.107c2.578,0.241-1.373,1.721,0,4   c1.566-3.665,3.98,0.471,8,0c-3.104-1.167,0.534-2.889-3-3c10.599-2.257,15.844,9.482,27,10c-15.967,6.937-33.399-3.881-41-12   C71.4,64.222,73.918,74.137,76.731,70.107z"/>
	<path fill-rule="evenodd" clip-rule="evenodd" fill="#FFFFFF" d="M407.731,71.107c0.282,4.448,8.884-1.125,12-3   c-5.778,10.555-16.479,16.188-26,23c-1.868-0.798-3.662-1.671-6-2C390.375,79.084,399.229,75.272,407.731,71.107z"/>
	<path fill-rule="evenodd" clip-rule="evenodd" fill="#FFFFFF" d="M445.731,69.107c10.218,2.12,23.922,9.407,26,23   c-3.051-1.949-4.74-5.26-9-6c-2.354,2.473,1.967,3.91,4,5c-8.857-2.148-21.725-8.938-24-21c2.071,3.262,7.938,2.729,11,5   C455.118,73.003,448.207,70.67,445.731,69.107z"/>
	<path fill-rule="evenodd" clip-rule="evenodd" fill="#FFFFFF" d="M457.731,70.107c8.549,1.257,20.77,6.222,25,15   c-0.933,1.067-3.688,0.312-3,3c-11.654-2.013-13.901-13.433-24-17C455.676,68.635,462.779,69.343,457.731,70.107z"/>
	<path fill-rule="evenodd" clip-rule="evenodd" fill="#FFFFFF" d="M420.731,70.107c1.135,0.19,0.556,1.003,0,1   c-3.571,6.997-8.892,15.448-16,21c-4.724,3.688-13.42,9.561-16,3c-0.939-4.606,5.415-1.918,7-4   C405.819,85.861,414.446,79.155,420.731,70.107z"/>
	<path fill-rule="evenodd" clip-rule="evenodd" fill="#FFFFFF" d="M195.731,103.107c1.233,3.038,3.439-1.084,6,0   c0.782,2.143,2.428,5.587,1,7c-1.754-3.707-3.743-0.26-7,0c-3.683-5.983-7.987-11.347-9-20c3.552,3.199-0.294-4.354,1-8   c3.826,6.507,6.336,14.331,11,20C198.735,105.119,195.571,97.517,195.731,103.107z"/>
	<path fill-rule="evenodd" clip-rule="evenodd" fill="#FFFFFF" d="M534.731,72.107c2.961,1.755-3.83,2.075-3,5   c3.322,2.277,7.622-3.011,10-5c1.775,2.167-2.774,6.516-6,7c-6.516,6.55-10.952,20.293-24,17c1.059-0.722,7.27-0.174,8-4   c-0.905-1.731-3.682-2.762-4,0C516.562,83.931,528.507,78.223,534.731,72.107z"/>
	<path fill-rule="evenodd" clip-rule="evenodd" fill="#FFFFFF" d="M428.731,74.107c2.031-3.237,2.389,3.517,4,4   C434.578,80.544,429.477,75.444,428.731,74.107z"/>
	<path fill-rule="evenodd" clip-rule="evenodd" fill="#FFFFFF" d="M439.731,80.107c-1.876,1.761-2.124,4.178-4,1   c0.558-1.232,3.869,0.745,3-4c-0.973,0.027-0.776,1.224-1,2c-1.342-0.202-1.862-4.153-2,0c-2.526-1.891,0.923-3.506-1-6   c5.042,1.278,14.639,16.697,16,23c0.647,2.997-0.481,6.536,0,10c-0.973-0.027-0.776-1.224-1-2c-2.182-0.182-3.182,0.818-3,3   C440.685,102.112,437.12,87.509,439.731,80.107z"/>
	<path fill-rule="evenodd" clip-rule="evenodd" fill="#FFFFFF" d="M563.731,75.107c8.666-0.324,12.287,13.04,18,19   c-0.235,6.597,0.571,11.59,0,11c-0.48-0.496-2.703-4.758-4-9c-1.878,3.707,0.313,6.843,0,11c-8.598-6.402-10.961-19.039-16-29   c1.889,0.111,0.694,3.306,3,3c-1.142-4.23-0.59-2.366,2-1C566.62,77.553,564.898,76.607,563.731,75.107z"/>
	<path fill-rule="evenodd" clip-rule="evenodd" fill="#FFFFFF" d="M568.731,75.107c10.286,4.051,21.257,16.073,26,29   C579.048,101.456,581.343,80.828,568.731,75.107z"/>
	<path fill-rule="evenodd" clip-rule="evenodd" fill="#FFFFFF" d="M83.731,104.107c-12.091-4.242-16.496-16.171-21-28   c0.887-3.739,5.583,4.21,5-1C76.791,80.343,87.242,92.718,83.731,104.107z M82.731,98.107c0,0.667,0,1.333,0,2c0.667,0,1.333,0,2,0   c0-0.667,0-1.333,0-2C84.064,98.107,83.397,98.107,82.731,98.107z"/>
	<path fill-rule="evenodd" clip-rule="evenodd" fill="#FFFFFF" d="M315.731,77.107C312.175,72.13,320.123,83.255,315.731,77.107   L315.731,77.107z"/>
	<path fill-rule="evenodd" clip-rule="evenodd" fill="#FFFFFF" d="M461.731,99.107c-13.004-1.663-13.981-15.352-20-24   c4.946,5.388,8.719,11.948,17,14C458.783,93.823,463.896,95.02,461.731,99.107z"/>
	<path fill-rule="evenodd" clip-rule="evenodd" fill="#FFFFFF" d="M543.731,75.107c2.154,1.577-3.689,3.577-4,6   c2.503,0.17,3.131-1.536,4-3c2.953,0.869-2.32,1.497-1,4c2.055-0.279,1.996-2.671,3-4c1.425,13.764-9.315,24.014-22,27   c0.56-1.44,1.56-2.44,3-3C524.519,89.018,536.81,82.342,543.731,75.107z"/>
	<path fill-rule="evenodd" clip-rule="evenodd" fill="#FFFFFF" d="M297.731,77.107c2.578,0.241-1.373,1.721,0,4   c3.034,0.367,2.076-3.258,3-5c3.574,13.581-2.989,25.672-9,33c-2.578-0.241,1.373-1.721,0-4c-2.775,0.226-2.829,3.171-5,4   c-4.068-9.385,4.096-13.612,7-20C295.832,84.486,293.681,79.98,297.731,77.107z"/>
	<path fill-rule="evenodd" clip-rule="evenodd" fill="#FFFFFF" d="M320.731,112.107c-11.862-4.805-11.606-21.728-14-36   C316.629,76.236,323.481,96.544,320.731,112.107z"/>
	<path fill-rule="evenodd" clip-rule="evenodd" fill="#FFFFFF" d="M179.731,79.107c1.484,1.849,1.916,4.751,2,8   c2.208-0.125,0.425-4.242,1-6c4.121,7.109,4.186,24.703,1,33c-3.699-0.634-3.051-5.615-3-10c-3.409-0.675-2.133,8.443-2,8   C170.593,106.905,178.708,89.85,179.731,79.107z"/>
	<path fill-rule="evenodd" clip-rule="evenodd" fill="#FFFFFF" d="M435.731,87.107c0-0.667,0-1.333,0-2   c3.832,6.545,6.946,30.197-5,30C428.392,105.444,441.666,102.342,435.731,87.107z"/>
	<path fill-rule="evenodd" clip-rule="evenodd" fill="#FFFFFF" d="M488.731,104.107c-8.973-12.43-24.8,3.753-37,6   c5.092-3.908,12.213-5.788,15-12c1.437-0.083,0.775,2.419,0,2c3.277,1.772,23.888-10.326,28-13c1.013,3.174,5.347-0.025,10,1   c-2.697,2.982-16.441,3.549-21,8c4.054,1.613,8.759,2.574,13,4c0.169,2.169-3.547,0.453-5,1   C496.003,105.434,493.252,102.496,488.731,104.107z"/>
	<path fill-rule="evenodd" clip-rule="evenodd" fill="#FFFFFF" d="M235.731,88.107c1.135,0.19,0.555,1.003,0,1   c1.851,2.38,7.669,0.918,10,5c-0.909,2.419-2.951-2.267-6-1c-2.031-0.306,0.205,2.889,1,3c-3.928-0.527-16.072-4.497-20,2   c1.427,4.247,5.198-1.528,10,0c-4.785,2.686,2.456,1.995,2,6c-7.96-5.14-20.938-4.292-27,4   C207.546,97.251,227.151,95.531,235.731,88.107z"/>
	<path fill-rule="evenodd" clip-rule="evenodd" fill="#FFFFFF" d="M350.731,96.107c2.896,0.56-1.534,1.56-1,3   c7.335-3.998,16.28-6.387,23-11c1.055,4.279,7.855,2.811,11,5c-1.186,3.322-8.797-5.243-8,2c-5.228-4.031-10.379-0.018-16,1   c-0.265,4.932,7.75,1.583,10,4c-0.279,2.1-2.671-1.449-4,1c0.309,2.358,3.473,1.86,3,5c1.753-2.874-6.863-0.648-5,0   c-3.655-1.272-4.609-5.607-9-6c-5.536-0.494-7.631,2.691-14,6C338.345,101.027,348.786,100.183,350.731,96.107z"/>
	<path fill-rule="evenodd" clip-rule="evenodd" fill="#FFFFFF" d="M120.731,98.107c-2.039-0.294-1.961-2.706-4-3   c-2.802,0.981,1.452,2.668-1,4c-2.481-5.304-11.723-6.426-15-1c0.125,2.209,4.242,0.425,6,1c-2.165,2.076-0.055,3.409,2,4   c-2.588-0.282-7.89-0.195-12-2c-8.633,4.367-17.243,8.757-30,9c2.848-3.485,9.586-3.08,13-6c0.658,1.342,2.138,1.862,4,2   c3.905-0.095,3.958-4.041,6-6c8.909-3.457,12.213-7.572,25-8c1.904-0.429,2.512-2.154,5-2c-0.111,1.889-3.306,0.694-3,3   C117.736,95.103,121.153,94.686,120.731,98.107z"/>
	<path fill-rule="evenodd" clip-rule="evenodd" fill="#FFFFFF" d="M333.731,107.107c-0.325,2.342-4.362,0.971-5,3   C326.746,109.35,332.614,105.018,333.731,107.107z"/>
	<path fill-rule="evenodd" clip-rule="evenodd" fill="#FFFFFF" d="M579.731,107.107c1.002-1.896,4.036,2.552,6,3   C584.36,112.372,581.613,107.638,579.731,107.107z"/>
	<path fill-rule="evenodd" clip-rule="evenodd" fill="#FFFFFF" d="M555.731,107.107c1.434,1.232,1.895,3.438,2,6   C556.745,115.299,555.977,108.956,555.731,107.107z"/>
	<path fill-rule="evenodd" clip-rule="evenodd" fill="#FFFFFF" d="M151.731,105.107c-4.332-12.215,11.231-25.149,19-33   c2.157,7.017-1.776,14.446-5,20C162.794,97.166,158.522,104.742,151.731,105.107z"/>
</g>
<metadata><rdf:RDF><cc:Work><dc:format>image/svg+xml</dc:format><dc:type rdf:resource="http://purl.org/dc/dcmitype/StillImage"/><cc:license rdf:resource="http://creativecommons.org/licenses/publicdomain/"/><dc:publisher><cc:Agent rdf:about="http://openclipart.org/"><dc:title>Open Clip Art Library</dc:title></cc:Agent></dc:publisher><dc:title>daisy border</dc:title><dc:date>2006-11-09T21:17:33</dc:date><dc:description>a daisy border from http://runeberg.org/ordochbild/</dc:description><dc:source>http://openclipart.org/detail/1353/daisy-border-by-johnny_automatic</dc:source><dc:creator><cc:Agent><dc:title>johnny_automatic</dc:title></cc:Agent></dc:creator><dc:subject><rdf:Bag><rdf:li>border</rdf:li><rdf:li>border</rdf:li><rdf:li>clip art</rdf:li><rdf:li>clipart</rdf:li><rdf:li>daisy</rdf:li><rdf:li>daisy</rdf:li><rdf:li>decorative</rdf:li><rdf:li>decorative</rdf:li><rdf:li>externalsource</rdf:li><rdf:li>flower</rdf:li><rdf:li>flower</rdf:li><rdf:li>image</rdf:li><rdf:li>media</rdf:li><rdf:li>plant</rdf:li><rdf:li>plant</rdf:li><rdf:li>png</rdf:li><rdf:li>public domain</rdf:li><rdf:li>svg</rdf:li></rdf:Bag></dc:subject></cc:Work><cc:License rdf:about="http://creativecommons.org/licenses/publicdomain/"><cc:permits rdf:resource="http://creativecommons.org/ns#Reproduction"/><cc:permits rdf:resource="http://creativecommons.org/ns#Distribution"/><cc:permits rdf:resource="http://creativecommons.org/ns#DerivativeWorks"/></cc:License></rdf:RDF></metadata></svg>
